# xmcd
#
# Track frame offsets:
#	150
#	9859
#	18491
#	27867
#	37341
#	47982
#	55256
#	67758
#	74082
#	85999
#
# Disc length: 1362 seconds
# Revision: 0
# Processed by: cddbd v1.5.2PL0 Copyright (c) Steve Scherf et al.
# Submitted via: dBpowerAMP V12.0
#
DISCID=8405500a
DTITLE=Lead Belly - Lead Belly: The Smithsonian Folkways Collection (sampler)
DYEAR=1996
DGENRE=Blues Traditional
TTITLE0=Black Girl (Where Did You Sleep Last Night)
TTITLE1=Irene (Goodnight Irene)
TTITLE2=The Midnight Special
TTITLE3=Rock Island Line
TTITLE4=The Bourgeois Blues
TTITLE5=Ha-Ha This a Way
TTITLE6=Been So Long (Bellevue Hospital Blues)
TTITLE7=I'm So Glad, I Done Got Over
TTITLE8=Packin' Trunk Blues
TTITLE9=Princess Elizabeth
EXTD=
EXTT0=
EXTT1=
EXTT2=
EXTT3=
EXTT4=
EXTT5=
EXTT6=
EXTT7=
EXTT8=
EXTT9=
PLAYORDER=
